<svg width="885" height="885" viewBox="0 0 885 885" fill="none" xmlns="http://www.w3.org/2000/svg">
<g id="Group 3">
<g id="Group 2">
<g id="Group 1" filter="url(#filter0_d_0_1)">
<g id="Subtract">
<mask id="path-1-inside-1_0_1" fill="white">
<path fill-rule="evenodd" clip-rule="evenodd" d="M442.5 877C684.677 877 881 680.677 881 438.5C881 196.323 684.677 0 442.5 0C200.323 0 4 196.323 4 438.5C4 680.677 200.323 877 442.5 877ZM442 819C652.421 819 823 648.42 823 438C823 227.58 652.421 57 442 57C231.58 57 61.0001 227.58 61.0001 438C61.0001 648.42 231.58 819 442 819Z"/>
</mask>
<path fill-rule="evenodd" clip-rule="evenodd" d="M442.5 877C684.677 877 881 680.677 881 438.5C881 196.323 684.677 0 442.5 0C200.323 0 4 196.323 4 438.5C4 680.677 200.323 877 442.5 877ZM442 819C652.421 819 823 648.42 823 438C823 227.58 652.421 57 442 57C231.58 57 61.0001 227.58 61.0001 438C61.0001 648.42 231.58 819 442 819Z" fill="black"/>
<path d="M700 438.5C700 580.713 584.713 696 442.5 696V1058C784.64 1058 1062 780.64 1062 438.5H700ZM442.5 181C584.713 181 700 296.287 700 438.5H1062C1062 96.3596 784.64 -181 442.5 -181V181ZM185 438.5C185 296.287 300.287 181 442.5 181V-181C100.36 -181 -177 96.3596 -177 438.5H185ZM442.5 696C300.287 696 185 580.713 185 438.5H-177C-177 780.64 100.36 1058 442.5 1058V696ZM642 438C642 548.457 552.457 638 442 638V1000C752.384 1000 1004 748.384 1004 438H642ZM442 238C552.457 238 642 327.543 642 438H1004C1004 127.616 752.384 -124 442 -124V238ZM242 438C242 327.543 331.543 238 442 238V-124C131.616 -124 -120 127.616 -120 438H242ZM442 638C331.543 638 242 548.457 242 438H-120C-120 748.384 131.616 1000 442 1000V638Z" fill="black" mask="url(#path-1-inside-1_0_1)"/>
</g>
</g>
<g id="Subtract_2" filter="url(#filter1_d_0_1)">
<mask id="path-3-inside-2_0_1" fill="white">
<path fill-rule="evenodd" clip-rule="evenodd" d="M441.529 877C648.928 877 817.059 705.525 817.059 494C817.059 282.475 648.928 111 441.529 111C234.13 111 66 282.475 66 494C66 705.525 234.13 877 441.529 877ZM441.529 827.389C622.063 827.389 768.415 678.125 768.415 494C768.415 309.875 622.063 160.611 441.529 160.611C260.995 160.611 114.644 309.875 114.644 494C114.644 678.125 260.995 827.389 441.529 827.389Z"/>
</mask>
<path fill-rule="evenodd" clip-rule="evenodd" d="M441.529 877C648.928 877 817.059 705.525 817.059 494C817.059 282.475 648.928 111 441.529 111C234.13 111 66 282.475 66 494C66 705.525 234.13 877 441.529 877ZM441.529 827.389C622.063 827.389 768.415 678.125 768.415 494C768.415 309.875 622.063 160.611 441.529 160.611C260.995 160.611 114.644 309.875 114.644 494C114.644 678.125 260.995 827.389 441.529 827.389Z" fill="black"/>
<path d="M764.059 494C764.059 677.243 618.678 824 441.529 824V930C679.179 930 870.059 733.807 870.059 494H764.059ZM441.529 164C618.678 164 764.059 310.757 764.059 494H870.059C870.059 254.193 679.179 58 441.529 58V164ZM119 494C119 310.757 264.381 164 441.529 164V58C203.88 58 13 254.193 13 494H119ZM441.529 824C264.381 824 119 677.243 119 494H13C13 733.807 203.88 930 441.529 930V824ZM715.415 494C715.415 649.843 591.813 774.389 441.529 774.389V880.389C652.314 880.389 821.415 706.407 821.415 494H715.415ZM441.529 213.611C591.813 213.611 715.415 338.157 715.415 494H821.415C821.415 281.593 652.314 107.611 441.529 107.611V213.611ZM167.644 494C167.644 338.157 291.246 213.611 441.529 213.611V107.611C230.745 107.611 61.6437 281.593 61.6437 494H167.644ZM441.529 774.389C291.246 774.389 167.644 649.843 167.644 494H61.6437C61.6437 706.407 230.745 880.389 441.529 880.389V774.389Z" fill="black" mask="url(#path-3-inside-2_0_1)"/>
</g>
<g id="ONE" filter="url(#filter2_dd_0_1)">
<path d="M253.7 508.269C253.7 531.257 249.833 551.345 242.099 568.532C234.364 585.612 223.407 598.664 209.228 607.688C195.048 616.711 178.505 621.223 159.599 621.223C141.122 621.223 124.74 616.711 110.453 607.688C96.166 598.557 85.0479 585.612 77.0986 568.854C69.2568 551.989 65.2285 532.492 65.0137 510.363V493.444C65.0137 470.886 68.9346 450.959 76.7764 433.664C84.6182 416.369 95.6826 403.156 109.97 394.025C124.364 384.787 140.8 380.168 159.276 380.168C178.075 380.168 194.618 384.733 208.905 393.864C223.3 402.888 234.364 416.047 242.099 433.342C249.833 450.529 253.7 470.563 253.7 493.444V508.269ZM222.924 493.122C222.924 465.3 217.338 443.977 206.166 429.152C194.994 414.221 179.364 406.755 159.276 406.755C139.726 406.755 124.311 414.221 113.031 429.152C101.859 443.977 96.1123 464.602 95.79 491.027V508.269C95.79 535.231 101.43 556.447 112.709 571.916C124.096 587.277 139.726 594.958 159.599 594.958C179.579 594.958 195.048 587.707 206.005 573.205C216.962 558.596 222.602 537.702 222.924 510.524V493.122ZM533.214 618H502.115L384.005 437.209V618H352.906V383.391H384.005L502.438 564.987V383.391H533.214V618ZM773.573 509.558H671.898V592.702H790.008V618H640.96V383.391H788.397V408.85H671.898V484.26H773.573V509.558Z" fill="black"/>
</g>
</g>
</g>
<defs>
<filter id="filter0_d_0_1" x="0" y="0" width="885" height="885" filterUnits="userSpaceOnUse" color-interpolation-filters="sRGB">
<feFlood flood-opacity="0" result="BackgroundImageFix"/>
<feColorMatrix in="SourceAlpha" type="matrix" values="0 0 0 0 0 0 0 0 0 0 0 0 0 0 0 0 0 0 127 0" result="hardAlpha"/>
<feOffset dy="4"/>
<feGaussianBlur stdDeviation="2"/>
<feComposite in2="hardAlpha" operator="out"/>
<feColorMatrix type="matrix" values="0 0 0 0 0 0 0 0 0 0 0 0 0 0 0 0 0 0 0.25 0"/>
<feBlend mode="normal" in2="BackgroundImageFix" result="effect1_dropShadow_0_1"/>
<feBlend mode="normal" in="SourceGraphic" in2="effect1_dropShadow_0_1" result="shape"/>
</filter>
<filter id="filter1_d_0_1" x="62" y="111" width="759.059" height="774" filterUnits="userSpaceOnUse" color-interpolation-filters="sRGB">
<feFlood flood-opacity="0" result="BackgroundImageFix"/>
<feColorMatrix in="SourceAlpha" type="matrix" values="0 0 0 0 0 0 0 0 0 0 0 0 0 0 0 0 0 0 127 0" result="hardAlpha"/>
<feOffset dy="4"/>
<feGaussianBlur stdDeviation="2"/>
<feComposite in2="hardAlpha" operator="out"/>
<feColorMatrix type="matrix" values="0 0 0 0 0 0 0 0 0 0 0 0 0 0 0 0 0 0 0.25 0"/>
<feBlend mode="normal" in2="BackgroundImageFix" result="effect1_dropShadow_0_1"/>
<feBlend mode="normal" in="SourceGraphic" in2="effect1_dropShadow_0_1" result="shape"/>
</filter>
<filter id="filter2_dd_0_1" x="61.0137" y="378.168" width="734.995" height="248.055" filterUnits="userSpaceOnUse" color-interpolation-filters="sRGB">
<feFlood flood-opacity="0" result="BackgroundImageFix"/>
<feColorMatrix in="SourceAlpha" type="matrix" values="0 0 0 0 0 0 0 0 0 0 0 0 0 0 0 0 0 0 127 0" result="hardAlpha"/>
<feOffset dx="-4" dy="5"/>
<feComposite in2="hardAlpha" operator="out"/>
<feColorMatrix type="matrix" values="0 0 0 0 1 0 0 0 0 1 0 0 0 0 1 0 0 0 1 0"/>
<feBlend mode="normal" in2="BackgroundImageFix" result="effect1_dropShadow_0_1"/>
<feColorMatrix in="SourceAlpha" type="matrix" values="0 0 0 0 0 0 0 0 0 0 0 0 0 0 0 0 0 0 127 0" result="hardAlpha"/>
<feOffset dx="6" dy="-2"/>
<feComposite in2="hardAlpha" operator="out"/>
<feColorMatrix type="matrix" values="0 0 0 0 1 0 0 0 0 1 0 0 0 0 1 0 0 0 1 0"/>
<feBlend mode="normal" in2="effect1_dropShadow_0_1" result="effect2_dropShadow_0_1"/>
<feBlend mode="normal" in="SourceGraphic" in2="effect2_dropShadow_0_1" result="shape"/>
</filter>
</defs>
</svg>
